<?xml version="1.0" encoding="utf-8"?>
<!-- Generator: Adobe Illustrator 19.0.0, SVG Export Plug-In . SVG Version: 6.00 Build 0)  -->
<svg version="1.1" id="Layer_1" xmlns="http://www.w3.org/2000/svg" xmlns:xlink="http://www.w3.org/1999/xlink" x="0px" y="0px"
	 viewBox="-317 397 364.6 208" style="enable-background:new -317 397 364.6 208;" xml:space="preserve">
<style type="text/css">
	.st0{fill:#941C1A;}
	.st1{fill:#A5CD39;}
	.st2{clip-path:url(#SVGID_2_);}
	.st3{clip-path:url(#SVGID_4_);}
	.st4{clip-path:url(#SVGID_6_);}
	.st5{clip-path:url(#SVGID_9_);}
	.st6{clip-path:url(#SVGID_10_);}
	.st7{clip-path:url(#SVGID_10_);fill:none;}
</style>
<path class="st0" d="M-134.7,397c37.2,0,67.4,30.2,67.4,67.4c0,0.8,0,1.6,0,2.4h-7.3c0-0.8,0.1-1.6,0.1-2.4
	c0-33.2-26.9-60.1-60.1-60.1s-60.1,26.9-60.1,60.1c0,0.8,0,1.6,0.1,2.4h-7.4c0-0.8,0-1.6,0-2.4C-202.1,427.2-171.9,397-134.7,397"/>
<path class="st0" d="M-200.2,486.4c0,0,11.4,7.1,9.4,25.7c-25.7-41.3-68.4-6.5-72.6-32.5c12.5,12.8,29-7.8,47.6,5.8
	c0,0,9.1,9.6,15.3,7.6c0,0,2.5-2.5-1.4-7l1,0.2L-200.2,486.4z"/>
<path class="st0" d="M-247.5,493.5c-10.9-4-37.4,12.7-42.4-6.6c-10,14.5,12.3,21.5,29.2,10.3c0,0,5.8-3.8,13.8-2.7l-0.4-0.7
	L-247.5,493.5z"/>
<path class="st0" d="M-201.1,508.9c-14.9-29.4-70.2,16.5-98.5,3.4c0,0,0,12.3,30.3,6.4c0,0,0.3,2.4-5,4.5c0,0,7.8,2.6,16.8-10.2
	c0,0,9.1-6.2,7.3,1c0,0-1.2,5.5,2,8.1c9.8-18.7,34.5-27.7,47.8-9.3l-0.4-2.2l-0.2-1L-201.1,508.9z"/>
<path class="st0" d="M-193.4,512.1c0,0-7.7-19.3-34.8-18.1c0,0-6.9,0.2-20.4,4.2c0,0-28.8,11.1-43.5,7.2c0,0,2.6,9.2,38.8-0.7
	c31-11.2,41-13.3,58,6.1l0.9,0.8L-193.4,512.1z"/>
<path class="st0" d="M-69.2,486.4c0,0-11.4,7.1-9.4,25.7c25.7-41.3,68.4-6.5,72.6-32.5c-12.5,12.8-29-7.8-47.6,5.8
	c0,0-9.1,9.6-15.3,7.6c0,0-2.5-2.5,1.4-7l-1,0.2L-69.2,486.4z"/>
<path class="st0" d="M-21.8,493.5c10.9-4,37.4,12.7,42.4-6.6c10,14.5-12.3,21.5-29.2,10.3c0,0-5.8-3.8-13.8-2.7l0.4-0.7L-21.8,493.5
	z"/>
<path class="st0" d="M-68.3,508.9c14.9-29.4,70.2,16.5,98.5,3.4c0,0,0,12.3-30.3,6.4c0,0-0.3,2.4,5,4.5c0,0-7.8,2.6-16.8-10.2
	c0,0-9.1-6.2-7.3,1c0,0,1.2,5.5-2,8.1c-9.8-18.7-34.5-27.7-47.8-9.3l0.4-2.2l0.2-1L-68.3,508.9z"/>
<path class="st0" d="M-76,512.1c0,0,7.7-19.3,34.8-18.1c0,0,6.9,0.2,20.4,4.2c0,0,28.8,11.1,43.5,7.2c0,0-2.6,9.2-38.8-0.7
	c-31-11.2-41-13.3-58,6.1l-0.9,0.8L-76,512.1z"/>
<rect x="-317" y="526.1" width="364.6" height="2.4"/>
<rect x="-317" y="578.9" width="364.6" height="2.4"/>
<path class="st0" d="M32.7,558.9l-3.5-11l-3.6,11H32.7z M33.3,560.6h-8.4l-1,3.1c-0.3,1-0.5,1.9-0.5,2.6c0,0.9,0.3,1.6,0.8,2
	c0.3,0.3,1.1,0.4,2.3,0.6v0.9h-7.9v-0.9c0.8-0.2,1.6-0.7,2.1-1.4c0.5-0.8,1.2-2.4,2-4.8l8.5-25.5h0.3l8.6,26.2c0.8,2.5,1.5,4,2,4.7
	c0.4,0.5,1,0.8,1.7,0.9v0.9H32.3V569h0.5c0.9,0,1.6-0.2,1.9-0.5c0.3-0.2,0.4-0.6,0.4-1.1c0-0.3,0-0.6-0.1-0.9c0-0.1-0.2-0.7-0.5-1.8
	L33.3,560.6z M17.1,558.5l-0.9,11.2H-4.9v-0.9h0.8c0.7,0,1.2-0.2,1.7-0.5c0.3-0.2,0.5-0.6,0.7-1.1c0.1-0.4,0.2-1.4,0.2-3v-21
	c0-1.6-0.1-2.7-0.2-3.1c-0.1-0.4-0.4-0.8-0.8-1.1c-0.4-0.3-0.9-0.5-1.6-0.5h-0.8v-0.9H7.8v0.9h-1c-0.7,0-1.2,0.2-1.7,0.5
	c-0.3,0.2-0.5,0.6-0.7,1.1c-0.1,0.4-0.2,1.4-0.2,3v20.3c0,1.6,0.1,2.7,0.2,3.1s0.4,0.8,0.8,1c0.3,0.1,1,0.2,2.1,0.2h2
	c1.3,0,2.3-0.3,3.2-0.9c0.8-0.6,1.6-1.5,2.2-2.8s1.2-3.2,1.7-5.7h0.7V558.5z M-17.1,558.9l-3.5-11l-3.6,11H-17.1z M-16.5,560.6h-8.4
	l-1,3.1c-0.3,1-0.5,1.9-0.5,2.6c0,0.9,0.3,1.6,0.8,2c0.3,0.3,1.1,0.4,2.3,0.6v0.9h-7.9v-0.9c0.8-0.2,1.6-0.7,2.1-1.4
	c0.5-0.8,1.2-2.4,2-4.8l8.5-25.5h0.3l8.6,26.2c0.8,2.5,1.5,4,2,4.7c0.4,0.5,1,0.8,1.7,0.9v0.9h-11.5V569h0.5c0.9,0,1.6-0.2,1.9-0.5
	c0.3-0.2,0.4-0.6,0.4-1.1c0-0.3,0-0.6-0.1-0.9c0-0.1-0.2-0.7-0.5-1.8L-16.5,560.6z M-34.5,537l0.2,10.6H-35
	c-0.3-2.7-1.2-4.8-2.5-6.4c-1.3-1.6-2.8-2.4-4.3-2.4c-1.2,0-2.1,0.4-2.8,1.3c-0.7,0.9-1,1.8-1,3c0,0.7,0.1,1.3,0.4,1.9
	c0.3,0.7,0.9,1.5,1.6,2.2c0.6,0.5,1.8,1.4,3.8,2.8c2.8,1.8,4.6,3.6,5.6,5.2c1,1.6,1.4,3.5,1.4,5.6c0,2.7-0.8,5-2.3,6.9
	s-3.5,2.9-5.9,2.9c-0.7,0-1.5-0.1-2.1-0.3c-0.7-0.2-1.5-0.6-2.5-1.2c-0.6-0.3-1-0.5-1.4-0.5c-0.3,0-0.6,0.2-1,0.5
	c-0.3,0.3-0.6,0.8-0.8,1.4h-0.6v-12.1h0.6c0.5,3.4,1.5,6,3,7.8s3,2.7,4.7,2.7c1.3,0,2.3-0.5,3.1-1.4c0.8-1,1.2-2.1,1.2-3.3
	c0-0.8-0.1-1.5-0.4-2.2s-0.7-1.4-1.4-2c-0.6-0.6-1.7-1.5-3.2-2.5c-2.2-1.4-3.7-2.6-4.7-3.6s-1.7-2.1-2.2-3.4
	c-0.5-1.2-0.8-2.6-0.8-4.1c0-2.5,0.7-4.7,2.1-6.5c1.4-1.8,3.1-2.7,5.3-2.7c0.8,0,1.5,0.1,2.2,0.4c0.5,0.2,1.2,0.5,2,1.1
	c0.8,0.5,1.3,0.8,1.7,0.8c0.3,0,0.5-0.1,0.7-0.4c0.2-0.2,0.3-0.9,0.5-1.8h0.5V537z M-62.9,558.9l-3.5-11l-3.6,11H-62.9z
	 M-62.3,560.6h-8.4l-1,3.1c-0.3,1-0.5,1.9-0.5,2.6c0,0.9,0.3,1.6,0.8,2c0.3,0.3,1.1,0.4,2.3,0.6v0.9H-77v-0.9
	c0.8-0.2,1.6-0.7,2.1-1.4c0.5-0.8,1.2-2.4,2-4.8l8.5-25.5h0.3l8.6,26.2c0.8,2.5,1.5,4,2,4.7c0.4,0.5,1,0.8,1.7,0.9v0.9h-11.5V569
	h0.5c0.9,0,1.6-0.2,1.9-0.5c0.3-0.2,0.4-0.6,0.4-1.1c0-0.3,0-0.6-0.1-0.9c0-0.1-0.2-0.7-0.5-1.8L-62.3,560.6z M-94,558.8l6.4-21h9.7
	v0.9h-0.8c-0.7,0-1.3,0.2-1.7,0.5c-0.3,0.2-0.5,0.6-0.7,1.1c-0.1,0.4-0.2,1.4-0.2,2.9v21c0,1.6,0.1,2.7,0.2,3.1
	c0.1,0.4,0.4,0.8,0.8,1.1c0.4,0.3,0.9,0.5,1.6,0.5h0.8v0.9h-12.4v-0.9h0.8c0.7,0,1.3-0.2,1.7-0.5c0.3-0.2,0.5-0.6,0.7-1.1
	c0.1-0.4,0.2-1.4,0.2-3v-23.7l-9.1,29.1h-0.4l-9.2-28.9v22.5c0,1.6,0,2.5,0.1,2.9c0.1,0.8,0.5,1.4,1,1.9s1.3,0.7,2.4,0.7v0.9h-8.1
	v-0.9h0.2c0.5,0,1-0.1,1.5-0.3s0.8-0.6,1-1s0.4-1,0.5-1.7c0-0.2,0-1,0-2.4v-20.2c0-1.6-0.1-2.6-0.2-3c-0.1-0.4-0.4-0.8-0.8-1.1
	c-0.4-0.3-0.9-0.5-1.6-0.5h-0.8v-0.9h9.7L-94,558.8z M-120.9,568.8v0.9h-12.4v-0.9h0.8c0.7,0,1.2-0.2,1.7-0.5
	c0.3-0.2,0.5-0.6,0.7-1.1c0.1-0.4,0.2-1.4,0.2-3v-21c0-1.6-0.1-2.7-0.2-3.1c-0.1-0.4-0.4-0.8-0.8-1.1c-0.4-0.3-0.9-0.5-1.6-0.5h-0.8
	v-0.9h12.4v0.9h-0.8c-0.7,0-1.2,0.2-1.7,0.5c-0.3,0.2-0.5,0.6-0.7,1.1c-0.1,0.4-0.2,1.4-0.2,3v21c0,1.6,0.1,2.7,0.2,3.1
	c0.1,0.4,0.4,0.8,0.8,1.1c0.4,0.3,0.9,0.5,1.6,0.5H-120.9z M-150.4,539.5v14h1c1.6,0,2.8-0.2,3.6-0.6c0.8-0.4,1.4-1.1,1.9-2.2
	c0.5-1,0.7-2.4,0.7-4.1c0-2.4-0.4-4.2-1.3-5.4c-0.8-1.2-2.2-1.7-4.1-1.7H-150.4z M-150.4,555.1v9c0,1.7,0.1,2.8,0.2,3.3
	c0.2,0.5,0.4,0.8,0.8,1.1c0.4,0.3,1.1,0.4,2.2,0.4v0.9h-12.2v-0.9c1.1,0,1.8-0.1,2.2-0.4s0.7-0.6,0.8-1.1c0.2-0.4,0.2-1.5,0.2-3.2
	v-20.7c0-1.7-0.1-2.8-0.2-3.3c-0.2-0.5-0.4-0.8-0.8-1.1c-0.4-0.3-1.1-0.4-2.2-0.4v-0.9h11c2.9,0,5,0.3,6.3,0.8s2.4,1.5,3.3,3
	c0.8,1.4,1.3,3.1,1.3,5c0,2.4-0.6,4.3-1.9,5.8c-0.8,1-1.9,1.7-3.4,2.2l5.7,10.8c0.7,1.4,1.3,2.3,1.6,2.6c0.5,0.5,1,0.8,1.7,0.8v0.9
	h-7.5l-7.6-14.6L-150.4,555.1L-150.4,555.1z M-173.7,538.8c-2.2,0-3.8,1.5-5,4.5c-0.9,2.4-1.4,6-1.4,10.5c0,5.4,0.7,9.5,2.1,12.1
	c1,1.8,2.4,2.7,4.2,2.7c1.2,0,2.2-0.4,3-1.2c1-1,1.8-2.6,2.4-4.8c0.6-2.2,0.9-5.1,0.9-8.6c0-4.2-0.3-7.4-0.9-9.5
	c-0.6-2.1-1.3-3.6-2.2-4.4C-171.5,539.3-172.5,538.8-173.7,538.8z M-173.9,537.3c3.8-0.2,6.9,1.3,9.2,4.4c2.4,3.2,3.5,7.1,3.5,11.8
	c0,4-0.9,7.6-2.6,10.7c-2.3,4.1-5.6,6.1-9.9,6.1c-4.3,0-7.6-1.9-9.9-5.8c-1.8-3.1-2.8-6.7-2.8-10.9c0-4.7,1.2-8.7,3.6-11.9
	C-180.4,538.6-177.4,537.1-173.9,537.3z M-201.6,538.8c-2.2,0-3.8,1.5-5,4.5c-0.9,2.4-1.4,6-1.4,10.5c0,5.4,0.7,9.5,2.1,12.1
	c1,1.8,2.4,2.7,4.2,2.7c1.2,0,2.2-0.4,3-1.2c1-1,1.8-2.6,2.4-4.8c0.6-2.2,0.9-5.1,0.9-8.6c0-4.2-0.3-7.4-0.9-9.5s-1.3-3.6-2.2-4.4
	C-199.4,539.3-200.4,538.8-201.6,538.8z M-201.8,537.3c3.8-0.2,6.9,1.3,9.2,4.4c2.4,3.2,3.5,7.1,3.5,11.8c0,4-0.9,7.6-2.6,10.7
	c-2.3,4.1-5.6,6.1-9.9,6.1s-7.6-1.9-9.9-5.8c-1.8-3.1-2.8-6.7-2.8-10.9c0-4.7,1.2-8.7,3.6-11.9
	C-208.3,538.6-205.3,537.1-201.8,537.3z M-232,539.6v24.9c0,1.3,0,2.1,0.1,2.4c0.1,0.3,0.3,0.5,0.5,0.7c0.3,0.2,0.8,0.4,1.4,0.4
	c1.9,0,3.4-0.9,4.5-2.7c1.4-2.4,2.1-6.2,2.1-11.2c0-4.1-0.5-7.4-1.4-9.8c-0.8-1.9-1.7-3.2-2.9-3.9
	C-228.7,539.8-230.1,539.6-232,539.6z M-241.1,569.7v-0.9h0.8c0.7,0,1.2-0.1,1.6-0.4c0.4-0.3,0.6-0.7,0.8-1.2c0.1-0.3,0.2-1.3,0.2-3
	v-21c0-1.6-0.1-2.7-0.2-3.1c-0.1-0.4-0.4-0.8-0.8-1.1s-0.9-0.5-1.6-0.5h-0.8v-0.9h10.6c2.8,0,5.1,0.5,6.8,1.6
	c2.1,1.3,3.7,3.2,4.8,5.8c1.1,2.6,1.6,5.5,1.6,8.7c0,2.2-0.3,4.3-0.8,6.2c-0.5,1.9-1.2,3.5-2.1,4.7c-0.9,1.2-1.8,2.2-3,3
	c-1.1,0.7-2.5,1.3-4.1,1.7c-0.7,0.2-1.8,0.3-3.4,0.3h-10.4V569.7z M-258.5,537.8l11.7,19.8v-13.7c0-1.9-0.2-3.2-0.6-3.9
	c-0.6-0.9-1.5-1.3-2.8-1.3v-0.9h7.8v0.9c-1,0.2-1.7,0.4-2,0.7c-0.3,0.3-0.6,0.7-0.8,1.3c-0.2,0.6-0.3,1.7-0.3,3.2v26.6h-0.6
	l-16.1-26.6v20.3c0,1.8,0.3,3.1,0.9,3.7c0.6,0.7,1.3,1,2.1,1h0.6v0.9h-8.4v-0.9c1.3,0,2.2-0.4,2.7-1.1s0.8-1.9,0.8-3.6v-22.5
	l-0.5-0.9c-0.5-0.8-0.9-1.4-1.3-1.7c-0.4-0.3-0.9-0.4-1.7-0.4v-0.9L-258.5,537.8L-258.5,537.8z M-279,558.9l-3.5-11l-3.6,11H-279z
	 M-278.4,560.6h-8.4l-1,3.1c-0.3,1-0.5,1.9-0.5,2.6c0,0.9,0.3,1.6,0.8,2c0.3,0.3,1.1,0.4,2.3,0.6v0.9h-7.8v-0.9
	c0.8-0.2,1.6-0.7,2.1-1.4c0.5-0.8,1.2-2.4,2-4.8l8.5-25.5h0.3l8.6,26.2c0.8,2.5,1.5,4,2,4.7c0.4,0.5,1,0.8,1.7,0.9v0.9h-11.5V569
	h0.5c0.9,0,1.6-0.2,1.9-0.5c0.3-0.2,0.4-0.6,0.4-1.1c0-0.3,0-0.6-0.1-0.9c0-0.1-0.2-0.7-0.5-1.8L-278.4,560.6z M-292,537.8v8.6h-0.6
	c-0.4-2-0.8-3.4-1.2-4.3c-0.5-0.9-1.1-1.6-1.9-2.1c-0.4-0.3-1.2-0.4-2.3-0.4h-1.8v24.6c0,1.6,0.1,2.7,0.2,3.1
	c0.1,0.4,0.4,0.8,0.8,1.1c0.4,0.3,0.9,0.5,1.6,0.5h0.8v0.9h-12.5v-0.9h0.8c0.7,0,1.2-0.2,1.7-0.5c0.3-0.2,0.5-0.6,0.7-1.1
	c0.1-0.4,0.2-1.4,0.2-3v-24.6h-1.7c-1.6,0-2.8,0.4-3.5,1.4c-1,1.3-1.7,3.1-1.9,5.4h-0.7v-8.6h21.3V537.8z"/>
<path d="M41.8,602.8h-9v-5H41V596h-8.2v-4.6h8.9v-1.8H30.8v15h11.1v-1.8H41.8z M22.7,601.8L22.7,601.8l-7.5-12.1h-2.4v15h2v-12.1
	l0,0l7.6,12.1h2.3v-15h-2V601.8z M6.6,589.6h-2v15h2V589.6z M-1.5,594c0-0.3,0-0.6-0.1-0.9c-0.1-0.3-0.2-0.7-0.3-1
	c-0.1-0.4-0.3-0.7-0.6-1c-0.3-0.3-0.6-0.6-1-0.9s-1-0.5-1.6-0.6c-0.6-0.2-1.4-0.2-2.2-0.2c-0.7,0-1.4,0.1-1.9,0.3
	c-0.6,0.2-1,0.4-1.5,0.7c-0.4,0.3-0.7,0.6-1,1c-0.3,0.4-0.5,0.8-0.6,1.3c-0.1,0.4-0.2,0.9-0.2,1.4s0.1,1,0.2,1.3
	c0.2,0.4,0.4,0.7,0.6,1c0.2,0.3,0.5,0.5,0.8,0.6c0.3,0.2,0.6,0.3,0.8,0.4c0.3,0.1,0.5,0.2,0.7,0.2l3.1,0.7c0.6,0.1,1.1,0.3,1.5,0.4
	c0.4,0.1,0.7,0.3,1,0.5c0.2,0.2,0.4,0.4,0.5,0.7c0.1,0.3,0.2,0.6,0.2,1c0,0.4-0.1,0.8-0.3,1.1c-0.2,0.3-0.4,0.5-0.7,0.7
	c-0.3,0.2-0.6,0.3-1,0.4c-0.3,0.1-0.7,0.2-1,0.2c-0.4,0-0.7,0.1-1,0.1c-0.4,0-0.8,0-1.2-0.1c-0.4-0.1-0.8-0.2-1.1-0.3
	c-0.4-0.2-0.7-0.4-0.9-0.6c-0.3-0.3-0.5-0.6-0.7-1c-0.2-0.4-0.2-0.9-0.2-1.4H-13c0,0.5,0,0.9,0.1,1.4c0.1,0.4,0.2,0.9,0.5,1.3
	c0.2,0.4,0.5,0.8,1,1.2c0.2,0.2,0.4,0.3,0.6,0.5s0.5,0.3,0.9,0.5c0.3,0.1,0.8,0.3,1.3,0.4c0.5,0.1,1.1,0.1,1.8,0.1
	c0.5,0,1.1,0,1.6-0.1c0.5-0.1,1.1-0.2,1.6-0.4s1-0.5,1.4-0.8s0.7-0.8,1-1.3c0.2-0.5,0.4-1.1,0.4-1.8c0-0.6-0.1-1.1-0.3-1.6
	c-0.2-0.4-0.4-0.8-0.7-1.2c-0.3-0.3-0.7-0.6-1.1-0.8s-0.9-0.4-1.4-0.5l-4.3-1c-0.3-0.1-0.6-0.2-0.8-0.3c-0.3-0.1-0.5-0.3-0.7-0.6
	s-0.3-0.6-0.3-1c0-0.5,0.1-0.8,0.2-1.1c0.2-0.3,0.4-0.6,0.6-0.8c0.3-0.2,0.5-0.3,0.8-0.4s0.6-0.2,0.9-0.2s0.6-0.1,0.8-0.1
	c0.4,0,0.9,0,1.3,0.1c0.4,0.1,0.8,0.3,1.2,0.5c0.4,0.2,0.7,0.5,0.9,0.9c0.2,0.4,0.4,0.9,0.4,1.5h1.8V594z M-18.6,589.6h-2v15h2
	V589.6z M-28.9,589.6v9.5c0,0.7-0.1,1.2-0.2,1.7s-0.4,0.9-0.6,1.2c-0.3,0.3-0.6,0.6-0.9,0.8s-0.7,0.3-1.1,0.4
	c-0.4,0.1-0.7,0.1-1.1,0.1c-0.5,0-0.9-0.1-1.4-0.2c-0.4-0.1-0.9-0.4-1.2-0.7c-0.4-0.3-0.7-0.7-0.9-1.3c-0.2-0.5-0.3-1.2-0.3-2v-9.4
	h-2v10c0,0.6,0.1,1.1,0.2,1.6s0.4,1,0.7,1.5c0.3,0.5,0.7,0.9,1.1,1.2c0.5,0.3,1,0.6,1.6,0.8c0.6,0.2,1.3,0.3,2.1,0.3
	c1,0,1.9-0.2,2.7-0.5c0.8-0.3,1.4-0.7,1.9-1.2s0.9-1.1,1.1-1.8s0.4-1.4,0.4-2.2v-9.7h-2.1V589.6z M-44.1,594.1
	c-0.1-0.5-0.2-1-0.4-1.5c-0.2-0.5-0.5-0.9-0.8-1.3c-0.3-0.4-0.7-0.8-1.2-1.1s-1-0.6-1.7-0.7c-0.6-0.2-1.3-0.3-2.1-0.3
	c-1.1,0-2.1,0.2-2.9,0.6c-0.9,0.4-1.6,0.9-2.2,1.6c-0.6,0.7-1.1,1.5-1.4,2.5s-0.5,2-0.5,3.2c0,1.2,0.1,2.2,0.4,3
	c0.2,0.9,0.6,1.6,1,2.3c0.4,0.6,0.9,1.1,1.5,1.5c0.6,0.4,1.2,0.7,1.8,0.9c0.7,0.2,1.3,0.3,2,0.3c0.2,0,0.5,0,0.8,0
	c0.4,0,0.8-0.1,1.2-0.2c0.4-0.1,0.9-0.3,1.4-0.6s0.9-0.6,1.4-1c0.4-0.4,0.8-1,1.1-1.6c0.3-0.7,0.6-1.5,0.7-2.4h-2
	c-0.1,0.7-0.3,1.3-0.6,1.8c-0.2,0.5-0.5,0.9-0.8,1.2s-0.6,0.5-1,0.7c-0.3,0.2-0.7,0.3-1,0.3c-0.3,0.1-0.6,0.1-0.9,0.1
	c-0.9,0-1.7-0.2-2.3-0.5c-0.6-0.3-1.1-0.8-1.5-1.3c-0.4-0.6-0.7-1.2-0.8-2c-0.2-0.8-0.3-1.6-0.3-2.5c0-1,0.1-1.9,0.4-2.6
	s0.6-1.4,1-1.9s1-0.9,1.6-1.1c0.6-0.3,1.2-0.4,1.9-0.4c0.3,0,0.6,0,0.9,0.1c0.3,0,0.7,0.1,1,0.3c0.3,0.1,0.7,0.3,1,0.5
	c0.3,0.2,0.6,0.5,0.8,0.9c0.2,0.4,0.4,0.8,0.5,1.3h2V594.1z M-76.1,601.8L-76.1,601.8l-7.5-12.1H-86v15h2v-12.1l0,0l7.6,12.1h2.3
	v-15h-2L-76.1,601.8L-76.1,601.8z M-99.7,598.5l2.4-6.6l0,0l2.2,6.6H-99.7z M-94.3,600.3l1.5,4.4h2.2l-5.4-15h-2.3l-5.6,15h2.1
	l1.6-4.4H-94.3z M-108.8,589.6h-2v15h2V589.6z M-126.9,591.4h3.8c0.9,0,1.7,0.2,2.4,0.6s1.2,1.1,1.5,1.9c0.4,0.8,0.5,1.9,0.6,3.2
	c0,1.3-0.2,2.3-0.5,3.2c-0.4,0.9-0.9,1.5-1.5,2c-0.7,0.4-1.4,0.7-2.3,0.7h-3.9v-11.6H-126.9z M-128.9,604.6h6c0.8,0,1.5-0.1,2.2-0.3
	c0.6-0.2,1.2-0.5,1.7-0.9c0.5-0.4,0.9-0.8,1.2-1.3s0.6-1,0.8-1.6s0.3-1.2,0.4-1.8c0.1-0.6,0.1-1.2,0.1-1.7c0-1.1-0.1-2.1-0.4-3
	c-0.3-0.9-0.7-1.7-1.3-2.3c-0.5-0.6-1.2-1.1-2-1.5c-0.8-0.3-1.7-0.5-2.6-0.5h-6.1L-128.9,604.6L-128.9,604.6z M-136.9,601.8
	L-136.9,601.8l-7.5-12.1h-2.4v15h2v-12.1l0,0l7.6,12.1h2.3v-15h-2L-136.9,601.8L-136.9,601.8z M-153,589.6h-2v15h2V589.6z
	 M-172.3,594.1c-0.1-0.5-0.2-1-0.4-1.5s-0.5-0.9-0.8-1.3c-0.3-0.4-0.7-0.8-1.2-1.1s-1-0.6-1.7-0.7c-0.6-0.2-1.3-0.3-2.1-0.3
	c-1.1,0-2.1,0.2-2.9,0.6c-0.9,0.4-1.6,0.9-2.2,1.6c-0.6,0.7-1.1,1.5-1.4,2.5c-0.3,1-0.5,2-0.5,3.2c0,1.2,0.1,2.2,0.4,3
	c0.2,0.9,0.6,1.6,1,2.3c0.4,0.6,0.9,1.1,1.5,1.5c0.6,0.4,1.2,0.7,1.8,0.9c0.7,0.2,1.3,0.3,2,0.3c0.2,0,0.5,0,0.8,0
	c0.4,0,0.8-0.1,1.2-0.2c0.4-0.1,0.9-0.3,1.4-0.6s0.9-0.6,1.4-1c0.4-0.4,0.8-1,1.1-1.6c0.3-0.7,0.6-1.5,0.7-2.4h-2
	c-0.1,0.7-0.3,1.3-0.6,1.8c-0.2,0.5-0.5,0.9-0.8,1.2s-0.6,0.5-1,0.7c-0.3,0.2-0.7,0.3-1,0.3c-0.3,0.1-0.6,0.1-0.9,0.1
	c-0.9,0-1.7-0.2-2.3-0.5c-0.6-0.3-1.1-0.8-1.5-1.3c-0.4-0.6-0.7-1.2-0.8-2c-0.2-0.8-0.3-1.6-0.3-2.5c0-1,0.1-1.9,0.4-2.6
	c0.3-0.7,0.6-1.4,1-1.9s1-0.9,1.6-1.1c0.6-0.3,1.2-0.4,1.9-0.4c0.3,0,0.6,0,0.9,0.1c0.3,0,0.7,0.1,1,0.3c0.3,0.1,0.7,0.3,1,0.5
	c0.3,0.2,0.6,0.5,0.8,0.9c0.2,0.4,0.4,0.8,0.5,1.3h2V594.1z M-190.9,589.6h-2v15h2V589.6z M-210.1,591.4h5.1v13.2h2v-13.2h5.1v-1.8
	h-12.2V591.4z M-216.6,601.8L-216.6,601.8l-7.5-12.1h-2.4v15h2v-12.1l0,0l7.6,12.1h2.3v-15h-2V601.8z M-232,602.8h-9v-5h8.2V596
	h-8.2v-4.6h8.9v-1.8H-243v15h11V602.8z M-251.2,595.8h-7.8v-6.2h-2v15h2v-7h7.8v7h2v-15h-2V595.8z M-277.8,591.4h5.1v13.2h2v-13.2
	h5.1v-1.8h-12.2V591.4z M-284.5,589.6v9.5c0,0.7-0.1,1.2-0.2,1.7c-0.1,0.5-0.4,0.9-0.6,1.2c-0.3,0.3-0.6,0.6-0.9,0.8
	c-0.3,0.2-0.7,0.3-1.1,0.4c-0.4,0.1-0.7,0.1-1.1,0.1c-0.5,0-0.9-0.1-1.4-0.2c-0.4-0.1-0.9-0.4-1.2-0.7c-0.4-0.3-0.7-0.7-0.9-1.3
	c-0.2-0.5-0.3-1.2-0.3-2v-9.4h-2v10c0,0.6,0.1,1.1,0.2,1.6s0.4,1,0.7,1.5c0.3,0.5,0.7,0.9,1.1,1.2c0.5,0.3,1,0.6,1.6,0.8
	c0.6,0.2,1.3,0.3,2.1,0.3c1,0,1.9-0.2,2.7-0.5c0.8-0.3,1.4-0.7,1.9-1.2s0.9-1.1,1.1-1.8c0.2-0.7,0.4-1.4,0.4-2.2v-9.7h-2.1V589.6z
	 M-307,598.5l2.4-6.6l0,0l2.2,6.6H-307z M-301.6,600.3l1.5,4.4h2.2l-5.4-15h-2.3l-5.6,15h2.1l1.6-4.4H-301.6z"/>
<path class="st1" d="M-143.7,463.6c0,0-4.1-6-5.6-7.2c0,0-1.6-0.5-3.4-0.4c0,0-2.4,0.5-4.3-2.7l-9.6-14.7l0.7-0.5l10,13.1h1.5
	l0.1-1.2l-10.1-12.9l0.6-0.5l10.2,12.9l1.2-0.1l0.1-1l-10-13l0.6-0.5l10.1,13l1.2,0.1v-1.4l-9.8-12.7l0.7-0.5c0,0,8,8.7,12.4,13.8
	c0,0,1.9,2.5,0.4,4.9c0,0-0.6,1.8,0.2,3.4l9.8,12.3l0.5-0.3l0.3-16.1c0,0,0.1-2.4-3-3.8c0,0-5-1.6-4.9-9.6c0,0,0.6-12.4,9.3-12.5
	c0,0,7.4-0.8,8.6,11.7c0,0,0.6,8.8-5.8,11.2c0,0-2.1,1.4-1.9,3.2l0.3,16.3l0.8,0.2c0,0,3.4-6.5,5-10.4c0,0,7.3-18.3,18.7-22.7
	c0,0,2.6-1.1,4.3,0.3c0,0,0.1,1-1,2.3c0,0-13.7,17.3-17.8,24.6l-6.5,6.6l-1.3,0.8l-8.8-0.6l-2.7-3.3L-143.7,463.6z"/>
<path class="st1" d="M-137.4,480.1c0,0-3.8,8.7-7.3,12.1c-3.5,2.8-5.1,1.7-6.7-1.4l13.9-16.3l4.7-0.4l14.1,16.5c0,0-1.6,2.9-4.9,2.9
	c0,0-2.2,0.1-3.9-4c0,0-3.8-8.5-4.8-9.3c0,0,0.6,7,1.4,9.3c2.8,10.2-11.1,10.4-8.1-0.1c0,0,1.5-5.4,1.6-8.7v-0.3V480.1z"/>
<g>
	<g>
		<defs>
			<path id="SVGID_1_" d="M-157.6,489.3v0.6l-4.6-0.6l0.1-0.6l-1.6-0.3c0,0,8.2-8.1,13.7-12.2c0,0-13.1-2.7-14.5-7.1
				c0,0,1.9-6.3,5-10.9c0,0,13.9,0.8,19.6,9.5c0,0,1-0.5,3.9-0.5c0,0,3-0.3,4.8,1c0,0,3.5-4.9,10.6-8.4c0,0,6.2-3.2,10.7-3.5
				c0,0,0.2,0.2,0.7,0.9c0,0,0.8,0,1.3,0.4c0,0,2.9,6.5,3.5,11.2c0,0-1.9,5-14.9,6.1v0.3c0,0,16,14.9,16.6,15.2l-0.9,0.6l0.2,0.8
				l-4.9,0.8l0.8,6.8c-7.9-3.9-20.5-15.7-24.9-23.2c0,0-2.1-1.9-5.1-1c-0.1-0.1-3.4,4.9-13.7,15.7l0.8,1.5l-5.8,5.4l-0.1-2.1
				l-1.8,1.6l0.9-7.9L-157.6,489.3z"/>
		</defs>
		<clipPath id="SVGID_2_">
			<use xlink:href="#SVGID_1_"  style="overflow:visible;"/>
		</clipPath>
		<g class="st2">
			<g>
				<defs>
					<path id="SVGID_3_" d="M-134.6,420.1c24.4,0,44.1,20,44.1,44.6c0,24.6-19.7,44.6-44.1,44.6s-44.1-20-44.1-44.6
						C-178.7,440.1-159,420.1-134.6,420.1"/>
				</defs>
				<clipPath id="SVGID_4_">
					<use xlink:href="#SVGID_3_"  style="overflow:visible;"/>
				</clipPath>
				<g class="st3">
					<g>
						<defs>
							<rect id="SVGID_5_" x="-167.3" y="424.8" width="64.8" height="74.8"/>
						</defs>
						<clipPath id="SVGID_6_">
							<use xlink:href="#SVGID_5_"  style="overflow:visible;"/>
						</clipPath>
						<g class="st4">
							<g>
								<defs>
									<rect id="SVGID_7_" x="-167.3" y="424.8" width="64.8" height="74.8"/>
								</defs>
								<defs>
									<rect id="SVGID_8_" x="-167.3" y="424.8" width="64.8" height="74.8"/>
								</defs>
								<clipPath id="SVGID_9_">
									<use xlink:href="#SVGID_7_"  style="overflow:visible;"/>
								</clipPath>
								<clipPath id="SVGID_10_" class="st5">
									<use xlink:href="#SVGID_8_"  style="overflow:visible;"/>
								</clipPath>
								<g class="st6">
									
										<image style="overflow:visible;enable-background:new    ;" width="235" height="164" xlink:href="724D05F5.jpeg"  transform="matrix(0.2639 0 0 0.2652 -164.6878 456.0624)">
									</image>
								</g>
								<rect x="-164.7" y="456.1" class="st7" width="62" height="43.5"/>
							</g>
						</g>
					</g>
				</g>
			</g>
		</g>
	</g>
</g>
<path class="st0" d="M-134.7,409.8c-30.2,0-54.6,24.5-54.6,54.7c0,30.2,24.5,54.6,54.6,54.6c30.2,0,54.7-24.5,54.7-54.6
	C-80,434.2-104.5,409.8-134.7,409.8z M-134.7,512.8c-26.7,0-48.4-21.7-48.4-48.4c0-26.7,21.7-48.4,48.4-48.4s48.4,21.7,48.4,48.4
	C-86.3,491.1-108,512.8-134.7,512.8z"/>
</svg>
